<svg height='100px' width='100px'  fill="#000000" xmlns="http://www.w3.org/2000/svg" viewBox="0 0 32 32" x="0px" y="0px"><title>detective, woman</title><g data-name="detective, woman"><path d="M22,7a7,7,0,0,0-5.6,11.18l-3.61,3.61a1,1,0,0,0,0,1.42,1,1,0,0,0,1.42,0l3.61-3.61A7,7,0,1,0,22,7Zm0,12a5,5,0,0,1-3.53-1.46h0A5,5,0,1,1,22,19Z"></path><path d="M13,14a9,9,0,0,1,6.06-8.5A7,7,0,0,0,12.79,2,7.19,7.19,0,0,0,6,9.25v.82A6,6,0,0,1,4.28,14.3,1,1,0,0,0,5,16h8.22A9.5,9.5,0,0,1,13,14Z"></path><path d="M22,23a8.85,8.85,0,0,1-3.87-.88l-2.51,2.5a3,3,0,1,1-4.24-4.24L13.76,18H5a9.94,9.94,0,0,0-2,6v5a1,1,0,0,0,1,1H22a1,1,0,0,0,1-1V24c0-.36,0-.7-.06-1.05C22.63,23,22.32,23,22,23Z"></path></g></svg>