<svg height='100px' width='100px'  fill="#000000" xmlns:x="http://ns.adobe.com/Extensibility/1.0/" xmlns:i="http://ns.adobe.com/AdobeIllustrator/10.0/" xmlns:graph="http://ns.adobe.com/Graphs/1.0/" xmlns="http://www.w3.org/2000/svg" xmlns:xlink="http://www.w3.org/1999/xlink" version="1.1" x="0px" y="0px" viewBox="0 0 100 100" style="enable-background:new 0 0 100 100;" xml:space="preserve"><g><g i:extraneous="self"><path d="M87.5,93.2l-2.6-9.7c-1.7-6.7-7.3-11.6-14.1-12.5l-6.1-0.8l-1.8-5.3c4.9-3.4,8.6-8.7,10.1-15.1c1.7-0.9,4.5-3.2,4.5-9    c0-4.2-0.7-6.7-2.1-8.1c-0.9-1-2-1.3-2.8-1.4c0.7-4.3,1.3-9.4,1.2-12.6c-0.2-6.6-3.4-10.8-8.5-9.2C58.1,4.8,47.7,1,35.9,3.1    c0.2,0.7,0.9,2.8,1.1,3.9c-4.1-1.9-7.5-1.5-7.5-1.5s-1.9,5-0.3,10.3c-1,3-1.7,9.8-1.5,15.6c-0.8,0.1-2,0.3-2.9,1.3    c-1.5,1.4-2.2,4-2.2,8.2c0,5.8,2.8,8.1,4.5,9c1.5,6.4,5.2,11.6,10.1,15l-1.8,5.3l-6.1,0.8c-6.9,0.9-12.4,5.8-14.1,12.5l-2.6,9.7    c-0.3,1.1-0.1,2.2,0.6,3c0.6,0.9,1.7,1.3,2.7,1.3h68.2c1.1,0,2.1-0.5,2.7-1.3C87.5,95.3,87.7,94.2,87.5,93.2z M50,60.3    c-1.8,0-3.2-1.4-3.2-3.2c0-1.8,1.4-3.2,3.2-3.2c1.8,0,3.2,1.4,3.2,3.2C53.3,58.9,51.8,60.3,50,60.3z M53.1,44.6    c-0.3,0.1-0.6,0.5-0.6,0.9v3.2c0,1.4-1.1,2.6-2.6,2.6s-2.6-1.1-2.6-2.6v-3.2c0-2.7,1.7-5,4.1-5.8c2.1-0.7,3.9-2.9,3.4-5.8    c-0.3-2-2.1-3.7-4-4c-1.5-0.3-3,0.1-4.2,1.1c-1.2,1-1.8,2.4-1.8,3.9c0,1.4-1.1,2.5-2.6,2.5s-2.6-1.1-2.6-2.5c0-3,1.3-5.9,3.6-7.8    c2.3-1.9,5.3-2.8,8.4-2.2c4.1,0.7,7.5,4.1,8.2,8.2C60.9,38.2,58,43,53.1,44.6z"></path></g></g></svg>