<svg height='100px' width='100px'  fill="#000000" xmlns="http://www.w3.org/2000/svg" xmlns:xlink="http://www.w3.org/1999/xlink" version="1.1" x="0px" y="0px" viewBox="0 0 24 24" style="enable-background:new 0 0 24 24;" xml:space="preserve"><title>ic_setting_fill_c1</title><desc>Created with Sketch.</desc><g><path d="M7.2,4.4C8.1,3.8,9,3.4,10,3.2l0.4-1.7C10.5,1.2,10.7,1,11,1h2c0.3,0,0.5,0.2,0.6,0.5L14,3.2c1,0.2,2,0.6,2.8,1.2l1.5-1   c0.2-0.2,0.6-0.1,0.8,0.1l1.4,1.4c0.2,0.2,0.2,0.5,0.1,0.8l-1,1.5C20.1,8,20.6,9,20.8,10l1.7,0.4c0.3,0.1,0.5,0.3,0.5,0.6v2   c0,0.3-0.2,0.5-0.5,0.6L20.8,14c-0.2,1-0.6,2-1.2,2.8l1,1.5c0.2,0.2,0.1,0.6-0.1,0.8l-1.4,1.4c-0.2,0.2-0.5,0.2-0.8,0.1l-1.5-1   C16,20.1,15,20.5,14,20.8l-0.4,1.7C13.6,22.8,13.3,23,13,23h-2c-0.3,0-0.5-0.2-0.6-0.5L10,20.8c-1-0.2-2-0.6-2.9-1.2l-1.5,0.9   c-0.2,0.2-0.6,0.1-0.8-0.1l-1.4-1.4c-0.2-0.2-0.2-0.5-0.1-0.8l0.9-1.5C3.9,16,3.4,15,3.2,14l-1.7-0.4C1.3,13.5,1,13.3,1,13v-2   c0-0.3,0.2-0.5,0.5-0.6L3.2,10c0.2-1,0.6-2,1.2-2.9L3.5,5.7C3.3,5.5,3.3,5.1,3.5,4.9L5,3.5c0.2-0.2,0.5-0.2,0.8-0.1L7.2,4.4z    M12,17.9c3.2,0,5.9-2.6,5.9-5.9S15.2,6.1,12,6.1S6.1,8.8,6.1,12S8.8,17.9,12,17.9z"></path></g></svg>