<svg height='100px' width='100px'  fill="#000000" xmlns:x="http://ns.adobe.com/Extensibility/1.0/" xmlns:i="http://ns.adobe.com/AdobeIllustrator/10.0/" xmlns:graph="http://ns.adobe.com/Graphs/1.0/" xmlns="http://www.w3.org/2000/svg" xmlns:xlink="http://www.w3.org/1999/xlink" version="1.1" x="0px" y="0px" viewBox="0 0 100 100" style="enable-background:new 0 0 100 100;" xml:space="preserve"><g><g i:extraneous="self"><g><path d="M5273.1,2400.1v-2c0-2.8-5-4-9.7-4s-9.7,1.3-9.7,4v2c0,1.8,0.7,3.6,2,4.9l5,4.9c0.3,0.3,0.4,0.6,0.4,1v6.4     c0,0.4,0.2,0.7,0.6,0.8l2.9,0.9c0.5,0.1,1-0.2,1-0.8v-7.2c0-0.4,0.2-0.7,0.4-1l5.1-5C5272.4,2403.7,5273.1,2401.9,5273.1,2400.1z      M5263.4,2400c-4.8,0-7.4-1.3-7.5-1.8v0c0.1-0.5,2.7-1.8,7.5-1.8c4.8,0,7.3,1.3,7.5,1.8C5270.7,2398.7,5268.2,2400,5263.4,2400z"></path><path d="M5268.4,2410.3c-0.6,0-1,0.4-1,1c0,0.6,0.4,1,1,1h4.3c0.6,0,1-0.4,1-1c0-0.6-0.4-1-1-1H5268.4z"></path><path d="M5272.7,2413.7h-4.3c-0.6,0-1,0.4-1,1c0,0.6,0.4,1,1,1h4.3c0.6,0,1-0.4,1-1C5273.7,2414.1,5273.3,2413.7,5272.7,2413.7z"></path><path d="M5272.7,2417h-4.3c-0.6,0-1,0.4-1,1c0,0.6,0.4,1,1,1h4.3c0.6,0,1-0.4,1-1C5273.7,2417.5,5273.3,2417,5272.7,2417z"></path></g><g><path d="M89.8,49.5l-8.4-12.8c-0.2-0.4-0.4-0.8-0.4-1.4c-1.6-18.7-17-32.8-35.8-32.8c-19.8,0-36,16.1-36,36     c0,11.5,5.3,23,14.3,30.6c0.2,0.2,0.6,0.6,0.6,1.1v19c0,3,2.2,5.4,5.2,5.7l28.5,2.5c0.2,0,0.3,0,0.5,0c1.4,0,2.8-0.5,3.8-1.5     c1.2-1.1,1.9-2.6,1.9-4.2V79.6h8.8c4.6,0,8.4-3.8,8.4-8.4V59.5h3.1c2.4,0,4.6-1.3,5.7-3.4C91.2,54,91.1,51.5,89.8,49.5z      M85.1,53.5c-0.1,0.2-0.3,0.5-0.8,0.5h-4.9c-2.1,0-3.9,1.7-3.9,3.9v13.4c0,1.5-1.2,2.8-2.8,2.8h-10c-2.4,0-4.4,2-4.4,4.4     l-0.1,13.5l-28.6-2.6v-19c0-2-0.9-4-2.5-5.4c-7.6-6.5-12.3-16.6-12.3-26.4c0-16.8,13.6-30.4,30.4-30.4C61,8.1,74,20,75.4,35.8     c0.1,1.3,0.5,2.6,1.2,3.8l8.5,12.9C85.3,52.9,85.2,53.3,85.1,53.5z"></path><path d="M49.5,21.1c0-2.1-1.7-3.7-3.8-3.7c-2.1,0-3.8,1.7-3.8,3.7c0,1.4,0.8,2.7,2,3.3v30.9c-1.2,0.6-2,1.9-2,3.3     c0,2.1,1.7,3.8,3.8,3.8c2.1,0,3.8-1.7,3.8-3.8c0-1.4-0.8-2.7-2-3.3V24.5C48.7,23.8,49.5,22.5,49.5,21.1z"></path><path d="M34.6,26.9c1.2-0.6,2-1.9,2-3.3c0-2.1-1.7-3.8-3.7-3.8s-3.8,1.7-3.8,3.8c0,1.4,0.8,2.7,2,3.3v6.8h5.4v4.6h-7.9     c-0.6-1.2-1.9-2-3.3-2c-2.1,0-3.8,1.7-3.8,3.7c0,2.1,1.7,3.8,3.8,3.8c1.4,0,2.7-0.8,3.3-2h7.9v4.6h-5.4v6.8c-1.2,0.6-2,1.9-2,3.3     c0,2.1,1.7,3.8,3.8,3.8s3.7-1.7,3.7-3.8c0-1.4-0.8-2.7-2-3.3v-3.4h5.4V30.2h-5.4V26.9z"></path><path d="M66.2,36.2c-1.4,0-2.7,0.8-3.3,2H55v-4.6h5.4v-6.8c1.2-0.6,2-1.9,2-3.3c0-2.1-1.7-3.8-3.8-3.8c-2.1,0-3.7,1.7-3.7,3.8     c0,1.4,0.8,2.7,2,3.3v3.4h-5.4v19.4H57v3.4c-1.2,0.6-2,1.9-2,3.3c0,2.1,1.7,3.7,3.7,3.7c2.1,0,3.8-1.7,3.8-3.7     c0-1.4-0.8-2.7-2-3.3v-6.8H55v-4.6h7.9c0.6,1.2,1.9,2,3.3,2c2.1,0,3.8-1.7,3.8-3.7C70,37.8,68.3,36.2,66.2,36.2z"></path></g></g></g></svg>